<?xml version="1.0" encoding="UTF-8"?> <svg xmlns="http://www.w3.org/2000/svg" id="Layer_1" data-name="Layer 1" viewBox="0 0 99.9959 84"><title>listing-placeholder</title><path id="bldg" d="M89.89,63.61v8.74H82.68V63.61Zm-15.86,0v8.74H66.82V63.61Zm-22.12,0v8.74H44.7V63.61Zm-32.2,0v8.74H12.5V63.61Zm31.72-6.32a3.7187,3.7187,0,0,1-.96,1.95L32.21,50.5,14.42,59.24c-.48-.49-.48-.97-.96-1.46,5.77-3.4,12.5-6.8,18.27-9.71ZM89.89,36.42v8.74H82.68V36.42Zm-15.86,0v8.74H66.82V36.42Zm-22.12,0v8.74H44.7V36.42Zm-32.2,0v8.74H12.5V36.42Zm32.2-16.03v8.74H44.7V20.39Zm-16.34,0v8.74H28.84V20.39Zm-15.86,0v8.74H12.5V20.39Zm46.63-4.37c-.97,1.46-1.93,3.4-3.37,5.34-1.44-.48-2.88-1.45-4.33-1.94l-.48,6.8H99.02c.96.97.96,1.46.96,2.91,0,.97.48,3.89-3.84,2.92V78.17c.96,1.95,2.4,3.89,3.36,5.83H38.46V62.64H25.96V83.51H1.44c.96-1.45,2.89-3.39,4.33-5.34L5.29,19.91c-.96.48-2.41.97-3.37,1.45A10.2633,10.2633,0,0,1,0,16.51C0,14.08,23.07,2.91,31.73,0Z" fill="#cfd9e2" fill-rule="evenodd"></path></svg> 